<svg xmlns="http://www.w3.org/2000/svg" viewBox="0 0 64 64">
  <defs>
    <linearGradient id="g" x1="0" y1="0" x2="1" y2="1">
      <stop offset="0%" stop-color="#38e8ff"/>
      <stop offset="50%" stop-color="#c8a8ff"/>
      <stop offset="100%" stop-color="#ff5fb8"/>
    </linearGradient>
  </defs>
  <rect width="64" height="64" rx="14" fill="#0a0517"/>
  <path d="M32 10c-9 0-16 7-16 16v22c0 3 3 5 6 3l3-3 3 3 3-3 3 3 3-3 3 3 3-3 3 3c3 2 5 0 5-3V26c0-9-7-16-19-16z" fill="url(#g)"/>
  <circle cx="26" cy="28" r="2.6" fill="#0a0517"/>
  <circle cx="38" cy="28" r="2.6" fill="#0a0517"/>
  <path d="M28 36 Q32 39 36 36" stroke="#0a0517" stroke-width="2" fill="none" stroke-linecap="round"/>
</svg>